<svg id="visual" viewBox="0 0 960 540" width="960" height="540" xmlns="http://www.w3.org/2000/svg" xmlns:xlink="http://www.w3.org/1999/xlink" version="1.1"><rect x="0" y="0" width="960" height="540" fill="#ffe4c4"></rect><defs><linearGradient id="grad1_0" x1="43.8%" y1="100%" x2="100%" y2="0%"><stop offset="14.444444444444446%" stop-color="#473c32" stop-opacity="1"></stop><stop offset="85.55555555555554%" stop-color="#473c32" stop-opacity="1"></stop></linearGradient></defs><defs><linearGradient id="grad1_1" x1="43.8%" y1="100%" x2="100%" y2="0%"><stop offset="14.444444444444446%" stop-color="#473c32" stop-opacity="1"></stop><stop offset="85.55555555555554%" stop-color="#635548" stop-opacity="1"></stop></linearGradient></defs><defs><linearGradient id="grad1_2" x1="43.8%" y1="100%" x2="100%" y2="0%"><stop offset="14.444444444444446%" stop-color="#806f5f" stop-opacity="1"></stop><stop offset="85.55555555555554%" stop-color="#635548" stop-opacity="1"></stop></linearGradient></defs><defs><linearGradient id="grad1_3" x1="43.8%" y1="100%" x2="100%" y2="0%"><stop offset="14.444444444444446%" stop-color="#806f5f" stop-opacity="1"></stop><stop offset="85.55555555555554%" stop-color="#9e8b77" stop-opacity="1"></stop></linearGradient></defs><defs><linearGradient id="grad1_4" x1="43.8%" y1="100%" x2="100%" y2="0%"><stop offset="14.444444444444446%" stop-color="#bea890" stop-opacity="1"></stop><stop offset="85.55555555555554%" stop-color="#9e8b77" stop-opacity="1"></stop></linearGradient></defs><defs><linearGradient id="grad1_5" x1="43.8%" y1="100%" x2="100%" y2="0%"><stop offset="14.444444444444446%" stop-color="#bea890" stop-opacity="1"></stop><stop offset="85.55555555555554%" stop-color="#dec5aa" stop-opacity="1"></stop></linearGradient></defs><defs><linearGradient id="grad1_6" x1="43.8%" y1="100%" x2="100%" y2="0%"><stop offset="14.444444444444446%" stop-color="#ffe4c4" stop-opacity="1"></stop><stop offset="85.55555555555554%" stop-color="#dec5aa" stop-opacity="1"></stop></linearGradient></defs><defs><linearGradient id="grad2_0" x1="0%" y1="100%" x2="56.3%" y2="0%"><stop offset="14.444444444444446%" stop-color="#473c32" stop-opacity="1"></stop><stop offset="85.55555555555554%" stop-color="#473c32" stop-opacity="1"></stop></linearGradient></defs><defs><linearGradient id="grad2_1" x1="0%" y1="100%" x2="56.3%" y2="0%"><stop offset="14.444444444444446%" stop-color="#635548" stop-opacity="1"></stop><stop offset="85.55555555555554%" stop-color="#473c32" stop-opacity="1"></stop></linearGradient></defs><defs><linearGradient id="grad2_2" x1="0%" y1="100%" x2="56.3%" y2="0%"><stop offset="14.444444444444446%" stop-color="#635548" stop-opacity="1"></stop><stop offset="85.55555555555554%" stop-color="#806f5f" stop-opacity="1"></stop></linearGradient></defs><defs><linearGradient id="grad2_3" x1="0%" y1="100%" x2="56.3%" y2="0%"><stop offset="14.444444444444446%" stop-color="#9e8b77" stop-opacity="1"></stop><stop offset="85.55555555555554%" stop-color="#806f5f" stop-opacity="1"></stop></linearGradient></defs><defs><linearGradient id="grad2_4" x1="0%" y1="100%" x2="56.3%" y2="0%"><stop offset="14.444444444444446%" stop-color="#9e8b77" stop-opacity="1"></stop><stop offset="85.55555555555554%" stop-color="#bea890" stop-opacity="1"></stop></linearGradient></defs><defs><linearGradient id="grad2_5" x1="0%" y1="100%" x2="56.3%" y2="0%"><stop offset="14.444444444444446%" stop-color="#dec5aa" stop-opacity="1"></stop><stop offset="85.55555555555554%" stop-color="#bea890" stop-opacity="1"></stop></linearGradient></defs><defs><linearGradient id="grad2_6" x1="0%" y1="100%" x2="56.3%" y2="0%"><stop offset="14.444444444444446%" stop-color="#dec5aa" stop-opacity="1"></stop><stop offset="85.55555555555554%" stop-color="#ffe4c4" stop-opacity="1"></stop></linearGradient></defs><g transform="translate(960, 540)"><path d="M-108 0C-105.1 -18.8 -102.3 -37.7 -93.5 -54C-84.8 -70.3 -70.1 -84.1 -53.5 -92.7C-36.9 -101.2 -18.5 -104.6 0 -108L0 0Z" fill="#eed5b7"></path><path d="M-92.6 0C-90.1 -16.2 -87.7 -32.3 -80.2 -46.3C-72.7 -60.3 -60.1 -72.1 -45.9 -79.4C-31.7 -86.8 -15.8 -89.7 0 -92.6L0 0Z" fill="#ceb69d"></path><path d="M-77.1 0C-75.1 -13.5 -73.1 -26.9 -66.8 -38.6C-60.5 -50.2 -50.1 -60.1 -38.2 -66.2C-26.4 -72.3 -13.2 -74.7 0 -77.1L0 0Z" fill="#ae9983"></path><path d="M-61.7 0C-60.1 -10.8 -58.5 -21.5 -53.4 -30.9C-48.4 -40.2 -40 -48 -30.6 -53C-21.1 -57.9 -10.6 -59.8 0 -61.7L0 0Z" fill="#8f7d6b"></path><path d="M-46.3 0C-45.1 -8.1 -43.8 -16.2 -40.1 -23.1C-36.3 -30.1 -30 -36 -22.9 -39.7C-15.8 -43.4 -7.9 -44.8 0 -46.3L0 0Z" fill="#716253"></path><path d="M-30.9 0C-30 -5.4 -29.2 -10.8 -26.7 -15.4C-24.2 -20.1 -20 -24 -15.3 -26.5C-10.6 -28.9 -5.3 -29.9 0 -30.9L0 0Z" fill="#55483d"></path><path d="M-15.4 0C-15 -2.7 -14.6 -5.4 -13.4 -7.7C-12.1 -10 -10 -12 -7.6 -13.2C-5.3 -14.5 -2.6 -14.9 0 -15.4L0 0Z" fill="#473c32"></path></g><g transform="translate(0, 0)"><path d="M108 0C105.2 19 102.4 37.9 93.5 54C84.6 70.1 69.6 83.3 53 91.8C36.4 100.3 18.2 104.2 0 108L0 0Z" fill="#eed5b7"></path><path d="M92.6 0C90.2 16.3 87.8 32.5 80.2 46.3C72.5 60.1 59.7 71.4 45.4 78.7C31.2 86 15.6 89.3 0 92.6L0 0Z" fill="#ceb69d"></path><path d="M77.1 0C75.2 13.5 73.2 27.1 66.8 38.6C60.4 50.1 49.7 59.5 37.9 65.6C26 71.7 13 74.4 0 77.1L0 0Z" fill="#ae9983"></path><path d="M61.7 0C60.1 10.8 58.5 21.7 53.4 30.9C48.4 40 39.8 47.6 30.3 52.5C20.8 57.3 10.4 59.5 0 61.7L0 0Z" fill="#8f7d6b"></path><path d="M46.3 0C45.1 8.1 43.9 16.3 40.1 23.1C36.3 30 29.8 35.7 22.7 39.3C15.6 43 7.8 44.6 0 46.3L0 0Z" fill="#716253"></path><path d="M30.9 0C30.1 5.4 29.3 10.8 26.7 15.4C24.2 20 19.9 23.8 15.1 26.2C10.4 28.7 5.2 29.8 0 30.9L0 0Z" fill="#55483d"></path><path d="M15.4 0C15 2.7 14.6 5.4 13.4 7.7C12.1 10 9.9 11.9 7.6 13.1C5.2 14.3 2.6 14.9 0 15.4L0 0Z" fill="#473c32"></path></g></svg>