<svg id="visual" viewBox="0 0 960 300" width="960" height="300" xmlns="http://www.w3.org/2000/svg" xmlns:xlink="http://www.w3.org/1999/xlink" version="1.1"><rect x="0" y="0" width="960" height="300" fill="#ffe4c4"></rect><defs><linearGradient id="grad1_0" x1="68.8%" y1="100%" x2="100%" y2="0%"><stop offset="-14.000000000000007%" stop-color="#473c32" stop-opacity="1"></stop><stop offset="114.00000000000001%" stop-color="#473c32" stop-opacity="1"></stop></linearGradient></defs><defs><linearGradient id="grad1_1" x1="68.8%" y1="100%" x2="100%" y2="0%"><stop offset="-14.000000000000007%" stop-color="#473c32" stop-opacity="1"></stop><stop offset="114.00000000000001%" stop-color="#695a4c" stop-opacity="1"></stop></linearGradient></defs><defs><linearGradient id="grad1_2" x1="68.8%" y1="100%" x2="100%" y2="0%"><stop offset="-14.000000000000007%" stop-color="#8c7a68" stop-opacity="1"></stop><stop offset="114.00000000000001%" stop-color="#695a4c" stop-opacity="1"></stop></linearGradient></defs><defs><linearGradient id="grad1_3" x1="68.8%" y1="100%" x2="100%" y2="0%"><stop offset="-14.000000000000007%" stop-color="#8c7a68" stop-opacity="1"></stop><stop offset="114.00000000000001%" stop-color="#b19c86" stop-opacity="1"></stop></linearGradient></defs><defs><linearGradient id="grad1_4" x1="68.8%" y1="100%" x2="100%" y2="0%"><stop offset="-14.000000000000007%" stop-color="#d8bfa4" stop-opacity="1"></stop><stop offset="114.00000000000001%" stop-color="#b19c86" stop-opacity="1"></stop></linearGradient></defs><defs><linearGradient id="grad1_5" x1="68.8%" y1="100%" x2="100%" y2="0%"><stop offset="-14.000000000000007%" stop-color="#d8bfa4" stop-opacity="1"></stop><stop offset="114.00000000000001%" stop-color="#ffe4c4" stop-opacity="1"></stop></linearGradient></defs><defs><linearGradient id="grad2_0" x1="0%" y1="100%" x2="31.3%" y2="0%"><stop offset="-14.000000000000007%" stop-color="#473c32" stop-opacity="1"></stop><stop offset="114.00000000000001%" stop-color="#473c32" stop-opacity="1"></stop></linearGradient></defs><defs><linearGradient id="grad2_1" x1="0%" y1="100%" x2="31.3%" y2="0%"><stop offset="-14.000000000000007%" stop-color="#695a4c" stop-opacity="1"></stop><stop offset="114.00000000000001%" stop-color="#473c32" stop-opacity="1"></stop></linearGradient></defs><defs><linearGradient id="grad2_2" x1="0%" y1="100%" x2="31.3%" y2="0%"><stop offset="-14.000000000000007%" stop-color="#695a4c" stop-opacity="1"></stop><stop offset="114.00000000000001%" stop-color="#8c7a68" stop-opacity="1"></stop></linearGradient></defs><defs><linearGradient id="grad2_3" x1="0%" y1="100%" x2="31.3%" y2="0%"><stop offset="-14.000000000000007%" stop-color="#b19c86" stop-opacity="1"></stop><stop offset="114.00000000000001%" stop-color="#8c7a68" stop-opacity="1"></stop></linearGradient></defs><defs><linearGradient id="grad2_4" x1="0%" y1="100%" x2="31.3%" y2="0%"><stop offset="-14.000000000000007%" stop-color="#b19c86" stop-opacity="1"></stop><stop offset="114.00000000000001%" stop-color="#d8bfa4" stop-opacity="1"></stop></linearGradient></defs><defs><linearGradient id="grad2_5" x1="0%" y1="100%" x2="31.3%" y2="0%"><stop offset="-14.000000000000007%" stop-color="#ffe4c4" stop-opacity="1"></stop><stop offset="114.00000000000001%" stop-color="#d8bfa4" stop-opacity="1"></stop></linearGradient></defs><g transform="translate(960, 300)"><path d="M-105 0C-83.7 -7.5 -62.4 -15.1 -56.3 -32.5C-50.2 -49.9 -59.3 -77.2 -52.5 -90.9C-45.7 -104.7 -22.8 -104.8 0 -105L0 0Z" fill="#ebd2b4"></path><path d="M-87.5 0C-69.7 -6.3 -52 -12.6 -46.9 -27.1C-41.8 -41.6 -49.5 -64.3 -43.8 -75.8C-38 -87.2 -19 -87.4 0 -87.5L0 0Z" fill="#c4ae95"></path><path d="M-70 0C-55.8 -5 -41.6 -10.1 -37.5 -21.7C-33.5 -33.3 -39.6 -51.5 -35 -60.6C-30.4 -69.8 -15.2 -69.9 0 -70L0 0Z" fill="#9e8b77"></path><path d="M-52.5 0C-41.8 -3.8 -31.2 -7.5 -28.1 -16.3C-25.1 -25 -29.7 -38.6 -26.3 -45.5C-22.8 -52.3 -11.4 -52.4 0 -52.5L0 0Z" fill="#7a6a5a"></path><path d="M-35 0C-27.9 -2.5 -20.8 -5 -18.8 -10.8C-16.7 -16.6 -19.8 -25.7 -17.5 -30.3C-15.2 -34.9 -7.6 -34.9 0 -35L0 0Z" fill="#584b3f"></path><path d="M-17.5 0C-13.9 -1.3 -10.4 -2.5 -9.4 -5.4C-8.4 -8.3 -9.9 -12.9 -8.8 -15.2C-7.6 -17.4 -3.8 -17.5 0 -17.5L0 0Z" fill="#473c32"></path></g><g transform="translate(0, 0)"><path d="M105 0C87.4 9.7 69.8 19.4 63.2 36.5C56.7 53.6 61.2 78.3 52.5 90.9C43.8 103.6 21.9 104.3 0 105L0 0Z" fill="#ebd2b4"></path><path d="M87.5 0C72.8 8.1 58.1 16.1 52.7 30.4C47.2 44.7 51 65.2 43.8 75.8C36.5 86.3 18.3 86.9 0 87.5L0 0Z" fill="#c4ae95"></path><path d="M70 0C58.3 6.5 46.5 12.9 42.1 24.3C37.8 35.8 40.8 52.2 35 60.6C29.2 69.1 14.6 69.5 0 70L0 0Z" fill="#9e8b77"></path><path d="M52.5 0C43.7 4.8 34.9 9.7 31.6 18.2C28.3 26.8 30.6 39.1 26.3 45.5C21.9 51.8 11 52.1 0 52.5L0 0Z" fill="#7a6a5a"></path><path d="M35 0C29.1 3.2 23.3 6.5 21.1 12.2C18.9 17.9 20.4 26.1 17.5 30.3C14.6 34.5 7.3 34.8 0 35L0 0Z" fill="#584b3f"></path><path d="M17.5 0C14.6 1.6 11.6 3.2 10.5 6.1C9.4 8.9 10.2 13 8.8 15.2C7.3 17.3 3.7 17.4 0 17.5L0 0Z" fill="#473c32"></path></g></svg>