<svg id="visual" viewBox="0 0 960 300" width="960" height="300" xmlns="http://www.w3.org/2000/svg" xmlns:xlink="http://www.w3.org/1999/xlink" version="1.1"><rect x="0" y="0" width="960" height="300" fill="#ffe4c4"></rect><path d="M0 166L20 165C40 164 80 162 120 159.3C160 156.7 200 153.3 240 153C280 152.7 320 155.3 360 155.7C400 156 440 154 480 154.3C520 154.7 560 157.3 600 160.8C640 164.3 680 168.7 720 166.5C760 164.3 800 155.7 840 153C880 150.3 920 153.7 940 155.3L960 157L960 301L940 301C920 301 880 301 840 301C800 301 760 301 720 301C680 301 640 301 600 301C560 301 520 301 480 301C440 301 400 301 360 301C320 301 280 301 240 301C200 301 160 301 120 301C80 301 40 301 20 301L0 301Z" fill="#ffe4c4"></path><path d="M0 181L20 178.5C40 176 80 171 120 169.2C160 167.3 200 168.7 240 170.7C280 172.7 320 175.3 360 178.8C400 182.3 440 186.7 480 188C520 189.3 560 187.7 600 183.8C640 180 680 174 720 175C760 176 800 184 840 185.5C880 187 920 182 940 179.5L960 177L960 301L940 301C920 301 880 301 840 301C800 301 760 301 720 301C680 301 640 301 600 301C560 301 520 301 480 301C440 301 400 301 360 301C320 301 280 301 240 301C200 301 160 301 120 301C80 301 40 301 20 301L0 301Z" fill="#e8cdad"></path><path d="M0 204L20 202.7C40 201.3 80 198.7 120 194.3C160 190 200 184 240 185C280 186 320 194 360 194.7C400 195.3 440 188.7 480 185.5C520 182.3 560 182.7 600 185.2C640 187.7 680 192.3 720 193C760 193.7 800 190.3 840 186.8C880 183.3 920 179.7 940 177.8L960 176L960 301L940 301C920 301 880 301 840 301C800 301 760 301 720 301C680 301 640 301 600 301C560 301 520 301 480 301C440 301 400 301 360 301C320 301 280 301 240 301C200 301 160 301 120 301C80 301 40 301 20 301L0 301Z" fill="#d2b697"></path><path d="M0 206L20 205.2C40 204.3 80 202.7 120 200.3C160 198 200 195 240 194.5C280 194 320 196 360 199.2C400 202.3 440 206.7 480 205.7C520 204.7 560 198.3 600 196.8C640 195.3 680 198.7 720 202.8C760 207 800 212 840 213.2C880 214.3 920 211.7 940 210.3L960 209L960 301L940 301C920 301 880 301 840 301C800 301 760 301 720 301C680 301 640 301 600 301C560 301 520 301 480 301C440 301 400 301 360 301C320 301 280 301 240 301C200 301 160 301 120 301C80 301 40 301 20 301L0 301Z" fill="#bba082"></path><path d="M0 216L20 214C40 212 80 208 120 209.2C160 210.3 200 216.7 240 219.8C280 223 320 223 360 223.2C400 223.3 440 223.7 480 223.3C520 223 560 222 600 220.2C640 218.3 680 215.7 720 215.2C760 214.7 800 216.3 840 217.7C880 219 920 220 940 220.5L960 221L960 301L940 301C920 301 880 301 840 301C800 301 760 301 720 301C680 301 640 301 600 301C560 301 520 301 480 301C440 301 400 301 360 301C320 301 280 301 240 301C200 301 160 301 120 301C80 301 40 301 20 301L0 301Z" fill="#a68b6d"></path><path d="M0 233L20 234.3C40 235.7 80 238.3 120 236.3C160 234.3 200 227.7 240 225.7C280 223.7 320 226.3 360 226.5C400 226.7 440 224.3 480 226C520 227.7 560 233.3 600 234.3C640 235.3 680 231.7 720 229.5C760 227.3 800 226.7 840 225.7C880 224.7 920 223.3 940 222.7L960 222L960 301L940 301C920 301 880 301 840 301C800 301 760 301 720 301C680 301 640 301 600 301C560 301 520 301 480 301C440 301 400 301 360 301C320 301 280 301 240 301C200 301 160 301 120 301C80 301 40 301 20 301L0 301Z" fill="#907559"></path><path d="M0 249L20 248C40 247 80 245 120 243.2C160 241.3 200 239.7 240 240C280 240.3 320 242.7 360 244.2C400 245.7 440 246.3 480 247.3C520 248.3 560 249.7 600 249.8C640 250 680 249 720 249.3C760 249.7 800 251.3 840 251C880 250.7 920 248.3 940 247.2L960 246L960 301L940 301C920 301 880 301 840 301C800 301 760 301 720 301C680 301 640 301 600 301C560 301 520 301 480 301C440 301 400 301 360 301C320 301 280 301 240 301C200 301 160 301 120 301C80 301 40 301 20 301L0 301Z" fill="#7c6146"></path><path d="M0 260L20 259.3C40 258.7 80 257.3 120 255.8C160 254.3 200 252.7 240 253.8C280 255 320 259 360 259.3C400 259.7 440 256.3 480 256.2C520 256 560 259 600 260C640 261 680 260 720 260.3C760 260.7 800 262.3 840 261.7C880 261 920 258 940 256.5L960 255L960 301L940 301C920 301 880 301 840 301C800 301 760 301 720 301C680 301 640 301 600 301C560 301 520 301 480 301C440 301 400 301 360 301C320 301 280 301 240 301C200 301 160 301 120 301C80 301 40 301 20 301L0 301Z" fill="#674d33"></path><path d="M0 264L20 263.7C40 263.3 80 262.7 120 264.2C160 265.7 200 269.3 240 270.3C280 271.3 320 269.7 360 269.5C400 269.3 440 270.7 480 269.7C520 268.7 560 265.3 600 266C640 266.7 680 271.3 720 271.3C760 271.3 800 266.7 840 265.5C880 264.3 920 266.7 940 267.8L960 269L960 301L940 301C920 301 880 301 840 301C800 301 760 301 720 301C680 301 640 301 600 301C560 301 520 301 480 301C440 301 400 301 360 301C320 301 280 301 240 301C200 301 160 301 120 301C80 301 40 301 20 301L0 301Z" fill="#533a22"></path><path d="M0 281L20 280.8C40 280.7 80 280.3 120 281.2C160 282 200 284 240 285C280 286 320 286 360 284.5C400 283 440 280 480 279.2C520 278.3 560 279.7 600 280.5C640 281.3 680 281.7 720 281.3C760 281 800 280 840 280.3C880 280.7 920 282.3 940 283.2L960 284L960 301L940 301C920 301 880 301 840 301C800 301 760 301 720 301C680 301 640 301 600 301C560 301 520 301 480 301C440 301 400 301 360 301C320 301 280 301 240 301C200 301 160 301 120 301C80 301 40 301 20 301L0 301Z" fill="#402811"></path></svg>